<?xml version="1.0" encoding="utf-8"?>
<!-- Generator: Adobe Illustrator 19.2.0, SVG Export Plug-In . SVG Version: 6.00 Build 0)  -->
<!DOCTYPE svg PUBLIC "-//W3C//DTD SVG 1.1//EN" "http://www.w3.org/Graphics/SVG/1.1/DTD/svg11.dtd">
<svg version="1.1" id="Layer_1" xmlns="http://www.w3.org/2000/svg" xmlns:xlink="http://www.w3.org/1999/xlink" x="0px" y="0px"
	 viewBox="0 0 7000 8550" style="enable-background:new 0 0 7000 8550;" xml:space="preserve">
<g>
	<g>
		<path d="M6461.8,5051.4c-123.4,115.6-415.2,267.8-993.9,409.6c166.9-252.1,593.9-954.2,690.2-1663.1
			c104.4-769.7-81.5-1110.6-595.4-1285.4c-514.2-174.6-2169,158.5-2843.5,1999.5c-128.4,412.1-130.9,797.6-130.9,797.6
			s211.4-583.5,709.4-980.2c487.3-388.5,1244.7-888.9,2005.4-571.7c419.5,175,736.8,675.7,153.2,1706
			c-133.7,32.3-282.4,64.7-447.8,95.3c-1493.9,261.6-2050.5,76.5-2233,0c-151.6-63.5-187.2-150.7-187.2-150.7
			c49.8,288.1,107,1063.1,548.7,1317.1c441.8,253.6,1220.9,190.2,1493.7,158.5c305.3-365,441.6-674.8,514.1-793.4
			c39.6,238.6-112.1,550.8-224.6,741c827.1-237.8,931.5-312.6,1228.6-653.7c296.7-341.1,658.5-1158.6,851.2-2047.3
			C6887.5,4456.5,6614.5,4908.7,6461.8,5051.4z M2665.9,7471.7c0,0-816.2-191.1-1210-1008.1c-481.8-999.5-179.3-1819.7,117.7-2406.6
			c110.6-218.1,280.5-506.2,578.7-832.1c7.1,41.6,14.5,83.1,22.5,125.1c6.4-69.3,20.8-132.7,39.6-191.3
			c513.4-537.9,1378.6-1171.1,2896-1765c-43-51.1-605.4,125.1-1319.3,492c45.6-39.5,82.6-75.9,106.5-107.6
			c0,0,326.5-238.2,144.6-1740.2c0,0-58.8,423.1-476.6,634.7S2403.7,1154,2135.9,1481.8C2039,1623,2014.4,2257.4,2116,2991
			c-97.3,82.8-193,168.4-285.4,256.8C521.4,4501.5,582,6030.6,623.9,6497c44.7,498.4,335.7,1552.8,1233.5,1929.4
			c768.5,322.5,1553.6-63.6,1842.8-277.5c289.2-214.5,599-748.8,919.9-1208.9C4620,6939.8,3602.9,7743.7,2665.9,7471.7z
			 M1780.4,1480.1C1927.6,1251.8,2007.6,566,1964.6,0C1937.9,338.6,433.3,756.4,171,1227.3C-91.5,1698.2,26.4,3337.8,26.4,3337.8
			c76.8-575.5,561.1-853.4,776.4-1003.5C928.6,2246.2,1630.5,1712.8,1780.4,1480.1z"/>
	</g>
</g>
</svg>
