<?xml version="1.0" encoding="utf-8"?>
<!-- Generator: Adobe Illustrator 19.2.1, SVG Export Plug-In . SVG Version: 6.00 Build 0)  -->
<svg version="1.1" id="Layer_1" xmlns="http://www.w3.org/2000/svg" xmlns:xlink="http://www.w3.org/1999/xlink" x="0px" y="0px"
	 viewBox="0 0 100 82.2" style="enable-background:new 0 0 100 82.2;" xml:space="preserve">
<g>
	<path d="M60.9,8.3c2,0,3.6,1.6,3.6,3.5v21.7c0,2-1.6,3.6-3.6,3.6H39.2c-2,0-3.6-1.6-3.6-3.6V11.9c0-2,1.6-3.5,3.6-3.5H60.9
		 M44.9,25.1h1.9h6.6h1.9l-1-1.6l-3.3-4.9l-0.8-1.2l-0.8,1.2L46,23.6L44.9,25.1 M60.9,7.3H39.2c-2.5,0-4.6,2-4.6,4.5v21.7
		c0,2.5,2,4.6,4.6,4.6h21.7c2.5,0,4.6-2,4.6-4.6V11.9C65.5,9.4,63.5,7.3,60.9,7.3L60.9,7.3z M46.8,24.1l3.3-4.9l3.3,4.9H46.8
		L46.8,24.1z"/>
</g>
<g>
	<path d="M60.9,43.3c2,0,3.6,1.6,3.6,3.6v21.7c0,2-1.6,3.6-3.6,3.6H39.1c-2,0-3.5-1.6-3.5-3.6V46.8c0-2,1.6-3.6,3.5-3.6H60.9
		 M50.1,62.7l0.8-1.2l3.3-4.9l1-1.6h-1.9h-6.6h-1.9l1,1.6l3.3,4.9L50.1,62.7 M60.9,42.3H39.1c-2.5,0-4.5,2-4.5,4.6v21.7
		c0,2.5,2,4.6,4.5,4.6h21.7c2.5,0,4.6-2,4.6-4.6V46.8C65.4,44.3,63.4,42.3,60.9,42.3L60.9,42.3z M50.1,61l-3.3-4.9h6.6L50.1,61
		L50.1,61z"/>
</g>
<path d="M95.5,42.3H73.7c-2.5,0-4.6,2-4.6,4.6v21.7c0,2.5,2,4.6,4.6,4.6h21.7c2.5,0,4.5-2,4.5-4.6V46.8C100,44.3,98,42.3,95.5,42.3z
	 M83.4,61v-6.6l4.9,3.3L83.4,61z"/>
<path d="M26.3,42.3H4.6c-2.5,0-4.6,2-4.6,4.6v21.7c0,2.5,2,4.6,4.6,4.6h21.7c2.5,0,4.6-2,4.6-4.6V46.8
	C30.8,44.3,28.8,42.3,26.3,42.3z M16.7,61l-4.9-3.3l4.9-3.3V61z"/>
</svg>
